<svg xmlns="http://www.w3.org/2000/svg" width="47.266" height="121.309" viewBox="0 0 12.506 32.096"><path d="M1.97 7.777c-.286-.364-.715-.662-.953-.662-.382 0-.424-.407-.359-3.506L.732.104 4.502.03c3.635-.07 3.77-.054 3.77.463 0 .468.171.537 1.33.537 1.294 0 1.348.031 2.116 1.242.675 1.065.788 1.5.788 3.043 0 1.477-.076 1.8-.425 1.8-.234 0-.66.298-.945.662-.286.363-.756.661-1.043.661-.288 0-.799-.298-1.136-.661-.537-.58-.833-.662-2.404-.662s-1.867.082-2.405.662c-.337.363-.848.661-1.135.661-.288 0-.757-.298-1.043-.661zm1.794-.252c.551-.664.224-1.336-.65-1.336-.808 0-1.135.53-.825 1.338.189.493 1.065.492 1.475-.002zm-1.127-.048c-.354-.354-.185-1.156.244-1.156.368 0 .378.062.068.435-.322.389-.294.414.264.237.466-.148.594-.107.505.16-.135.406-.8.605-1.08.324zm8.262-.06c.372-.696-.22-1.437-1.051-1.32-.727.104-.99.845-.507 1.428.445.535 1.243.48 1.558-.109zm-1.46-.137c-.206-.537.083-.964.635-.938.276.013.32.072.117.155-.182.073-.33.255-.33.404 0 .149.188.198.418.11.266-.102.379-.04.309.17-.164.493-.971.562-1.15.099zM1.993 6.057c.25-.291.751-.53 1.115-.53.376 0 .805.23.993.53.273.437.617.529 1.986.529h1.656V.501H1.13v3.042c0 1.674.092 3.043.206 3.043.113 0 .41-.238.658-.53zm-.335-4.763c0-.16 1.102-.264 2.778-.264s2.778.105 2.778.264c0 .16-1.102.265-2.778.265s-2.778-.105-2.778-.265zm7.347 4.763c.187-.3.617-.53.992-.53.364 0 .866.239 1.115.53.605.706.865.667.865-.133 0-.411-.15-.661-.397-.661-.245 0-.397-.248-.397-.646 0-.571-.13-.656-1.124-.728C8.97 3.81 8.93 3.776 8.853 2.833c-.08-.953-.057-.978.926-1.08.941-.098.925-.108-.25-.15L8.273 1.56v2.513c0 1.383.09 2.514.2 2.514.111 0 .35-.238.532-.53zm2.972-1.603c0-.154-.12-.207-.265-.117-.145.09-.264.216-.264.28 0 .064.119.117.264.117.146 0 .265-.126.265-.28zm-.265-1.193c0-.657-.644-1.173-1.464-1.173-.802 0-.917.083-.917.661 0 .608.097.662 1.19.662.655 0 1.191-.067 1.191-.15zM5.196 20.67c-.133-.418-.321-.512-.793-.393-.472.118-.66.024-.794-.397-.098-.308-.4-.551-.686-.551-.363 0-.511-.184-.511-.634 0-.348-.187-.704-.415-.792-.28-.107-.36-.336-.243-.702.095-.3.029-.716-.147-.928-.248-.3-.248-.468 0-.768.176-.211.242-.629.147-.927-.116-.367-.037-.596.243-.703.228-.088.415-.444.415-.792 0-.45.148-.634.511-.634.286 0 .588-.243.686-.551.134-.421.322-.515.794-.396.472.118.66.024.793-.394.166-.523.198-.527.68-.092.478.433.53.433 1.01 0 .48-.435.513-.431.679.092.133.418.321.512.793.394.472-.119.66-.025.793.396.098.308.4.551.687.551.363 0 .511.184.511.634 0 .348.187.704.415.792.28.107.36.336.243.703-.095.298-.029.716.146.927.25.3.25.469 0 .768-.175.212-.24.629-.146.928.116.366.037.595-.243.702-.228.088-.415.444-.415.792 0 .45-.148.634-.511.634-.286 0-.589.243-.687.551-.133.421-.32.515-.793.397-.472-.119-.66-.025-.793.393-.166.523-.198.528-.68.092-.478-.433-.531-.433-1.01 0-.48.436-.513.431-.68-.092zm1.546-.577c.276.229.442.204.699-.106a.803.803 0 0 1 .829-.25c.37.118.492.022.492-.39 0-.371.17-.548.529-.548.343 0 .529-.176.529-.5 0-.276.184-.572.408-.658.317-.122.346-.273.13-.676-.218-.409-.178-.578.188-.797.443-.266.443-.292 0-.558-.366-.22-.406-.388-.187-.797.215-.403.186-.554-.13-.676-.225-.086-.409-.382-.409-.658 0-.324-.186-.5-.53-.5-.358 0-.528-.177-.528-.547 0-.413-.121-.51-.492-.391a.803.803 0 0 1-.829-.25c-.257-.31-.423-.335-.699-.106-.27.224-.454.224-.723 0-.276-.229-.443-.203-.7.106a.803.803 0 0 1-.828.25c-.371-.118-.492-.022-.492.39 0 .371-.17.548-.529.548-.343 0-.53.176-.53.5 0 .276-.183.572-.407.658-.318.122-.347.273-.131.676.219.409.18.578-.187.797-.443.266-.443.292 0 .558.366.22.406.388.187.797-.216.403-.187.554.13.676.225.086.409.382.409.658 0 .324.186.5.529.5.358 0 .53.177.53.547 0 .413.12.51.491.391a.803.803 0 0 1 .829.25c.256.31.423.335.699.106.27-.224.453-.224.723 0zm-1.42-2.452c0-.307 1.947-3.598 2.06-3.484.058.058-.335.858-.872 1.778-1.051 1.8-1.188 1.996-1.188 1.706zm1.588-.43c-.37-.69.088-1.587.81-1.587.637 0 .893.56.668 1.456-.203.81-1.074.888-1.478.132zm1.154-.131c.208-.545-.074-1.191-.521-1.191-.233 0-.369.292-.369.794 0 .843.613 1.116.89.397zm-3.668-1.456c-.274-.862.095-1.587.807-1.587.46 0 .684.184.805.665.305 1.214-1.239 2.098-1.612.922zm1.19-.529c0-.87-.646-1.121-.851-.33-.168.647.034 1.124.477 1.124.24 0 .375-.285.375-.794zM2.831 31.95c-.684-.126-1.368-.306-1.521-.4-.153-.095-.278-.98-.278-1.967 0-1.46-.099-1.886-.53-2.275-.914-.828-.517-1.984.683-1.984.782 0 1.264.647 1.067 1.43-.138.551-.049.67.613.815.663.145.91.024 1.713-.84.965-1.038 1.148-1.517.687-1.802-.521-.322-.286-1.457.364-1.753 1.286-.586 2.216.621 1.438 1.867-.268.43-.18.66.596 1.562.898 1.044 1.394 1.255 2.209.942.29-.11.368-.354.257-.797-.195-.777.29-1.424 1.069-1.424 1.2 0 1.597 1.156.682 1.984-.431.39-.53.815-.53 2.297 0 1.738-.03 1.83-.727 2.097-.96.37-6.214.536-7.792.247zm7.461-.76l.662-.165.083-.021-.877-.294c-1.177-.394-7.577-.275-8.194.085-.215.125-.32.203-.281.265.047.075.297.127.81.212.578.095 1.23.219 1.447.275.71.183 5.67-.096 6.35-.356zm-4.1-1.236c1.455 0 3.092.082 3.637.182l.993.182v-2.589l-1.086.383-1.086.383-1.22-1.357-1.22-1.356-1.245 1.354L3.72 28.49l-1.08-.38-1.079-.381v2.589l.992-.182c.546-.1 2.183-.182 3.638-.182zm-4.366-3.448c0-.223-.187-.477-.415-.564-.497-.191-1.04.277-.79.682.27.436 1.205.345 1.205-.118zm9.922-.124c0-.574-1.033-.495-1.145.088-.072.376.046.465.526.397.34-.049.619-.267.619-.485zm-4.945-2.186c.106-.547-.658-.916-1.061-.513-.404.404-.035 1.167.512 1.062a.75.75 0 0 0 .55-.55z" fill="#f06c7e"/></svg>