<?xml version="1.0" encoding="UTF-8" standalone="no"?>
<!-- Created with Inkscape (http://www.inkscape.org/) -->

<svg
   xmlns:dc="http://purl.org/dc/elements/1.1/"
   xmlns:cc="http://creativecommons.org/ns#"
   xmlns:rdf="http://www.w3.org/1999/02/22-rdf-syntax-ns#"
   xmlns:svg="http://www.w3.org/2000/svg"
   xmlns="http://www.w3.org/2000/svg"
   xmlns:sodipodi="http://sodipodi.sourceforge.net/DTD/sodipodi-0.dtd"
   xmlns:inkscape="http://www.inkscape.org/namespaces/inkscape"
   width="98.152718mm"
   height="25.662006mm"
   viewBox="0 0 98.152718 25.662006"
   version="1.1"
   id="svg8"
   inkscape:version="0.92.2 (5c3e80d, 2017-08-06)"
   sodipodi:docname="drawing.svg">
  <defs
     id="defs2" />
  <sodipodi:namedview
     id="base"
     pagecolor="#ffffff"
     bordercolor="#666666"
     borderopacity="1.0"
     inkscape:pageopacity="0.0"
     inkscape:pageshadow="2"
     inkscape:zoom="0.7"
     inkscape:cx="291.44441"
     inkscape:cy="-21.786178"
     inkscape:document-units="mm"
     inkscape:current-layer="layer1"
     showgrid="false"
     fit-margin-top="0"
     fit-margin-left="0"
     fit-margin-right="0"
     fit-margin-bottom="0"
     inkscape:window-width="1920"
     inkscape:window-height="1017"
     inkscape:window-x="-8"
     inkscape:window-y="-8"
     inkscape:window-maximized="1" />
  <metadata
     id="metadata5">
    <rdf:RDF>
      <cc:Work
         rdf:about="">
        <dc:format>image/svg+xml</dc:format>
        <dc:type
           rdf:resource="http://purl.org/dc/dcmitype/StillImage" />
        <dc:title></dc:title>
      </cc:Work>
    </rdf:RDF>
  </metadata>
  <g
     inkscape:label="Layer 1"
     inkscape:groupmode="layer"
     id="layer1"
     transform="translate(-31.803008,-83.98412)">
    <g
       id="g3733"
       transform="matrix(0.06019706,0,0,0.06019706,30.918111,83.099223)">
      <path
         id="path3719"
         d="M 14.7,14.7 H 441 V 441 H 14.7 Z"
         class="st0"
         inkscape:connector-curvature="0"
         style="fill:#4065b4" />
      <path
         id="path3721"
         d="m 249.6,169.6 v -23.3 c 0,-11.3 7.6,-14 12.8,-14 5.3,0 32.7,0 32.7,0 V 82.6 l -45,-0.2 c -49.9,0 -61.3,37.2 -61.3,61 v 26.3 H 160 v 35.2 23.1 h 29.1 c 0,65.9 0,145.5 0,145.5 h 58.2 c 0,0 0,-80.3 0,-145.5 h 43.2 l 2.1,-22.9 3.2,-35.4 h -46.2 z"
         class="st1"
         inkscape:connector-curvature="0"
         style="fill:#ffffff" />
    </g>
    <g
       id="g3751"
       transform="matrix(0.06019706,0,0,0.06019706,67.163458,83.099223)">
      <path
         id="path3737"
         d="M 14.7,14.7 H 441 V 441 H 14.7 Z"
         class="st0"
         inkscape:connector-curvature="0"
         style="fill:#28aae1" />
      <path
         id="path3739"
         d="m 155.9,310.4 c -36.4,-1.9 -60.5,-27.8 -67.1,-50.8 5.2,0.2 10.4,0.8 15.5,0.6 5.2,-0.2 10.4,-1.1 15.6,-2 C 84,247.1 64.8,223.1 62.7,185.5 73,190 83.3,193.6 95.5,193.7 79.6,182.1 69.3,167.6 65.2,149.1 61.1,130.6 63.8,112.9 73.1,96 c 39.8,46.7 89.9,72.4 151.3,76.7 -0.5,-4.7 -1.1,-8.9 -1.3,-13.2 -1.1,-22.8 6.8,-42.2 23.5,-57.6 18.4,-17 40.3,-22.6 64.7,-18 14.1,2.6 26.4,9.3 36.5,19.6 1.5,1.5 2.8,1.9 5,1.4 14.4,-3.2 28.1,-8.4 41,-15.6 0.5,-0.3 1,-0.5 1.5,-0.8 0.2,-0.1 0.4,0 1,0 -5.5,16.6 -15.9,29.3 -30.1,39.1 13.8,-1 26.8,-5.2 40.1,-10.6 -8.8,12.8 -18.5,23.6 -30,32.8 -0.3,0.2 -0.6,0.5 -0.9,0.7 -4.8,2.6 -5.7,6.6 -5.5,11.8 0.6,28.1 -5.1,55.1 -15.6,81.2 -8.2,20.3 -19.1,39 -32.9,55.9 -11.3,13.8 -24.1,25.9 -38.6,36.3 -16.1,11.6 -33.5,20.5 -52.2,26.8 -16.3,5.5 -33.1,8.9 -50.3,10.2 -20.8,1.6 -41.4,0.8 -61.8,-3.5 -17.2,-3.6 -33.9,-9.1 -49.6,-17.2 -6.6,-3.4 -13,-7 -19.4,-10.9 19.2,1.3 38,0.2 56.4,-5.1 18.3,-5.2 35.1,-13.5 50,-25.6 z"
         class="st1"
         inkscape:connector-curvature="0"
         style="fill:#ffffff" />
    </g>
    <g
       id="g3778"
       transform="matrix(0.06019706,0,0,0.06019706,103.40882,83.099223)">
      <path
         id="path3755"
         d="M 14.7,14.7 H 441 V 441 H 14.7 Z"
         class="st0"
         inkscape:connector-curvature="0"
         style="fill:#0274b3" />
      <g
         id="g3763">
        <path
           id="path3757"
           d="m 243.6,204.4 c 6.2,-9.5 14.1,-16.9 23.9,-22.2 13.1,-7 27.1,-9 41.7,-7.9 9.4,0.7 18.5,2.3 27.2,6.1 15.7,6.8 25.3,19.1 30.7,35 4.1,12.2 6,24.9 6.1,37.7 0.3,39.1 0.3,78.2 0.5,117.3 0,2.2 -0.4,3.1 -2.9,3.1 -18.5,-0.1 -37.1,-0.1 -55.6,-0.1 -0.7,0 -1.5,-0.1 -2.5,-0.2 -0.1,-1.5 -0.2,-2.8 -0.2,-4.2 -0.1,-34.1 0,-68.2 -0.3,-102.3 0,-5.8 -0.9,-11.7 -2.3,-17.3 -4.1,-16.5 -15.5,-22.5 -31.2,-21.6 -6.9,0.4 -13.6,1.9 -19.2,6.4 -7.1,5.6 -10.5,13.4 -11.9,21.9 -1.1,6.7 -1.7,13.6 -1.7,20.4 -0.2,31.1 -0.1,62.3 0,93.4 0,2.6 -0.5,3.6 -3.3,3.5 -18.2,-0.1 -36.3,-0.1 -54.5,0 -2.6,0 -3.2,-0.9 -3.2,-3.3 0.1,-62.7 0.1,-125.5 0,-188.2 0,-2.2 0.5,-3.1 2.9,-3.1 17.5,0.1 35,0.1 52.5,0 2.7,0 3.3,0.9 3.3,3.4 -0.1,7.4 0,14.8 0,22.2 z"
           class="st1"
           inkscape:connector-curvature="0"
           style="fill:#ffffff" />
        <path
           id="path3759"
           d="m 147.9,276.5 c 0,31 0,62.1 0,93.1 0,3.8 0,3.8 -3.8,3.8 -17.9,0 -35.8,0 -53.7,0 -3.8,0 -3.8,0 -3.8,-4.2 0,-61 0,-122 0,-183 0,-7.4 0,-7.4 7.4,-7.4 16.8,0 33.6,0.1 50.3,-0.1 2.9,0 3.6,0.9 3.6,3.6 0,31.5 0,62.8 0,94.2 0,0 0,0 0,0 z"
           class="st1"
           inkscape:connector-curvature="0"
           style="fill:#ffffff" />
        <path
           id="path3761"
           d="m 152.5,118.1 c -0.2,19.8 -16,35.2 -36.1,35 C 97.2,153 81.8,136.8 82,116.9 82.1,97.7 98.3,82.3 118.1,82.4 c 18.9,0.1 34.6,16.4 34.4,35.7 z"
           class="st1"
           inkscape:connector-curvature="0"
           style="fill:#ffffff" />
      </g>
    </g>
  </g>
  <style
     id="style3699"
     type="text/css">
	.st0{fill:#4065B4;}
	.st1{fill:#FFFFFF;}
</style>
  <style
     id="style3717"
     type="text/css">
	.st0{fill:#4065B4;}
	.st1{fill:#FFFFFF;}
</style>
  <style
     id="style3735"
     type="text/css">
	.st0{fill:#28AAE1;}
	.st1{fill:#FFFFFF;}
</style>
  <style
     id="style3753"
     type="text/css">
	.st0{fill:#0274B3;}
	.st1{fill:#FFFFFF;}
</style>
</svg>
