<?xml version="1.0" standalone="no"?>
<!DOCTYPE svg PUBLIC "-//W3C//DTD SVG 20010904//EN"
 "http://www.w3.org/TR/2001/REC-SVG-20010904/DTD/svg10.dtd">
<svg version="1.0" xmlns="http://www.w3.org/2000/svg"
 width="720.000000pt" height="720.000000pt" viewBox="0 0 720.000000 720.000000"
 preserveAspectRatio="xMidYMid meet">
<metadata>
Created by potrace 1.11, written by Peter Selinger 2001-2013
</metadata>
<g transform="translate(0.000000,720.000000) scale(0.100000,-0.100000)"
fill="#000000" stroke="none">
<path d="M3389 7016 c-2 -2 -43 -6 -92 -10 -77 -5 -114 -10 -252 -32 -247 -39
-604 -140 -727 -205 -10 -5 -22 -9 -28 -9 -11 0 -284 -132 -365 -177 -112 -62
-406 -257 -425 -282 -3 -4 -30 -26 -60 -50 -357 -280 -702 -715 -915 -1156
-137 -281 -254 -638 -291 -883 -6 -43 -10 -64 -18 -112 -37 -206 -43 -699 -10
-920 12 -84 37 -239 46 -280 5 -25 10 -54 13 -65 2 -11 4 -20 5 -20 1 0 3 -10
6 -23 14 -78 93 -326 149 -467 35 -90 188 -402 220 -450 14 -20 25 -38 25 -41
0 -4 119 -182 180 -268 94 -135 319 -382 465 -511 33 -29 235 -193 275 -223
50 -38 239 -162 246 -162 4 0 15 -6 23 -14 9 -7 45 -29 81 -48 36 -19 74 -40
85 -46 157 -90 578 -247 771 -288 7 -1 43 -9 80 -17 67 -15 224 -43 294 -52
215 -27 615 -28 845 0 66 7 119 15 145 20 14 3 63 12 110 21 188 35 516 134
612 185 10 5 22 9 28 9 17 0 309 144 394 194 43 25 82 46 87 46 5 0 9 4 9 9 0
5 14 14 30 21 17 7 30 16 30 20 0 4 11 12 24 18 23 10 205 138 216 151 3 3 37
32 75 63 181 147 404 376 525 538 14 18 34 45 46 59 22 27 204 300 204 306 0
1 21 40 47 86 26 46 48 86 49 89 0 3 20 46 43 95 73 152 79 167 116 270 49
134 85 251 111 355 2 8 8 35 15 60 6 25 13 54 15 65 2 11 6 31 9 45 3 14 7 39
10 55 3 17 7 44 10 60 17 100 20 125 32 245 10 107 10 499 1 605 -12 118 -17
168 -22 190 -3 11 -8 43 -12 70 -5 42 -21 118 -60 293 -60 275 -238 687 -417
972 -41 65 -182 265 -202 286 -5 7 -17 20 -25 31 -108 134 -232 267 -374 399
-20 18 -200 168 -231 192 -298 228 -691 429 -1060 542 -181 56 -436 110 -590
126 -33 3 -76 8 -95 10 -42 6 -526 15 -531 10z"/>
</g>
</svg>
