<?xml version="1.0" standalone="no"?>
<!DOCTYPE svg PUBLIC "-//W3C//DTD SVG 20010904//EN"
 "http://www.w3.org/TR/2001/REC-SVG-20010904/DTD/svg10.dtd">
<svg version="1.0" xmlns="http://www.w3.org/2000/svg"
 width="333.000000pt" height="333.000000pt" viewBox="0 0 333.000000 333.000000"
 preserveAspectRatio="xMidYMid meet">
<metadata>
Created by potrace 1.11, written by Peter Selinger 2001-2013
</metadata>
<g transform="translate(0.000000,333.000000) scale(0.100000,-0.100000)"
fill="#000000" stroke="none">
<path d="M2527 3317 c4 -6 -3 -8 -15 -5 -12 4 -25 1 -30 -5 -4 -7 -16 -13 -27
-14 -41 -5 -44 -6 -165 -61 -19 -9 -38 -15 -42 -14 -5 1 -8 -3 -8 -9 0 -5 -4
-7 -10 -4 -5 3 -10 1 -10 -5 0 -6 -4 -9 -9 -5 -5 3 -17 -2 -25 -11 -9 -8 -16
-13 -16 -9 0 3 -13 -3 -29 -14 -16 -12 -32 -21 -35 -21 -3 0 -15 -8 -26 -17
-11 -10 -23 -16 -27 -15 -3 2 -9 0 -12 -5 -3 -5 -49 -37 -101 -73 -52 -35 -98
-68 -101 -73 -3 -5 -9 -8 -13 -8 -7 2 -11 -1 -71 -54 -22 -19 -43 -35 -46 -35
-7 0 -54 -38 -90 -72 -11 -10 -21 -18 -23 -18 -4 0 -59 -47 -114 -97 -19 -18
-39 -33 -44 -33 -5 0 -6 -4 -3 -10 3 -5 2 -10 -3 -10 -5 0 -42 -31 -83 -70
-41 -38 -77 -70 -81 -70 -5 0 -8 -4 -8 -9 0 -7 -122 -137 -242 -258 -13 -13
-19 -23 -16 -23 4 0 -9 -18 -30 -39 -68 -72 -92 -101 -92 -112 0 -5 -4 -8 -9
-5 -4 3 -13 -6 -19 -19 -7 -14 -16 -25 -21 -25 -6 0 -8 -7 -4 -15 3 -9 1 -15
-5 -13 -5 2 -36 -33 -68 -77 -32 -44 -62 -81 -66 -83 -4 -2 -8 -10 -8 -18 0
-8 -4 -14 -10 -14 -5 0 -10 -7 -10 -15 0 -8 -4 -15 -10 -15 -5 0 -10 -7 -10
-15 0 -8 -4 -15 -10 -15 -5 0 -10 -7 -10 -15 0 -8 -4 -15 -10 -15 -5 0 -10 -7
-10 -15 0 -8 -5 -15 -11 -15 -5 0 -8 -4 -5 -9 6 -10 -28 -48 -63 -71 -13 -8
-29 -19 -35 -25 -6 -5 -17 -11 -25 -13 -7 -1 -27 -16 -44 -32 -18 -17 -38 -30
-45 -30 -6 0 -11 -3 -10 -8 2 -4 -9 -20 -24 -36 -14 -16 -34 -46 -44 -67 -9
-22 -20 -39 -25 -39 -6 0 -53 -85 -54 -100 0 -3 -7 -16 -15 -30 -7 -14 -15
-32 -16 -40 -1 -8 -5 -26 -8 -40 -12 -59 -6 -109 17 -137 7 -9 5 -13 -6 -13
-8 0 -21 -10 -29 -23 -14 -21 -15 -35 -2 -102 3 -16 6 -41 7 -55 1 -14 7 -28
12 -32 6 -5 5 -8 -3 -8 -9 0 -7 -9 8 -30 12 -17 19 -30 15 -30 -8 0 76 -124
87 -128 4 -2 8 -8 8 -13 0 -5 8 -18 17 -30 10 -11 28 -33 40 -47 13 -15 23
-31 23 -35 0 -5 4 -5 10 -2 5 3 10 1 10 -5 0 -6 18 -29 40 -51 21 -21 37 -39
35 -39 -3 0 15 -20 39 -45 25 -25 50 -45 57 -45 7 0 10 -3 7 -6 -4 -3 12 -22
35 -42 23 -20 43 -40 45 -44 2 -5 8 -8 13 -8 5 0 18 -8 29 -17 11 -10 23 -17
26 -15 3 2 14 -6 24 -18 10 -12 22 -21 27 -21 14 1 77 -11 88 -17 5 -3 22 -7
37 -9 43 -4 52 -7 61 -18 4 -6 11 -4 17 5 5 8 10 11 10 7 0 -4 10 1 22 13 26
24 32 25 53 3 12 -12 37 -17 86 -19 38 -1 69 1 69 5 0 3 11 7 25 7 16 1 22 -2
18 -10 -4 -6 1 -5 10 3 9 7 23 11 31 8 8 -3 20 1 26 9 7 8 16 14 21 14 5 0 20
10 35 22 14 13 27 21 28 18 1 -3 13 5 26 18 82 74 120 112 120 117 0 3 11 20
25 39 14 18 25 38 25 44 0 7 4 12 8 12 12 0 33 50 27 61 -4 5 0 9 7 9 10 0 10
2 -1 9 -7 5 -11 13 -7 19 3 6 2 13 -4 17 -5 3 -10 16 -10 29 0 12 -3 26 -7 30
-5 4 -8 11 -9 14 -4 30 -68 142 -87 150 -4 2 -5 8 -1 13 3 5 -2 9 -10 9 -9 0
-16 7 -16 15 0 8 -4 15 -10 15 -5 0 -10 6 -10 13 0 6 -10 24 -23 38 -12 15
-33 41 -47 59 -39 51 -111 135 -172 200 -21 22 -35 40 -33 40 2 0 -6 10 -18
23 -12 12 -58 63 -102 111 -44 49 -85 94 -91 100 -8 7 -2 24 22 58 19 26 34
52 34 58 0 5 4 10 8 10 5 0 14 11 20 25 7 14 16 31 22 38 33 40 90 117 90 122
0 3 8 14 18 25 9 11 24 28 32 38 95 112 128 151 152 176 l28 28 0 -29 c0 -16
-6 -35 -12 -41 -9 -9 -10 -15 -2 -20 6 -4 10 -23 9 -42 -1 -19 2 -45 6 -57 5
-14 4 -23 -4 -27 -8 -3 -8 -5 -1 -5 6 -1 9 -12 6 -26 -2 -14 0 -25 5 -25 5 0
9 -8 10 -17 3 -52 8 -79 16 -90 5 -7 6 -17 3 -22 -4 -5 -2 -12 4 -16 5 -3 10
-15 10 -25 0 -10 5 -31 12 -47 6 -15 12 -30 12 -33 5 -21 81 -170 88 -170 4 0
7 -4 6 -9 -7 -23 174 -231 202 -231 6 0 9 -4 6 -8 -3 -5 11 -14 30 -21 18 -7
34 -17 34 -22 0 -5 6 -9 13 -9 7 0 31 -9 53 -19 22 -11 55 -22 74 -24 19 -3
35 -6 35 -7 0 -14 205 -14 223 0 1 2 11 3 21 4 11 0 22 4 26 8 4 4 13 4 21 1
8 -3 14 -1 14 4 0 8 15 12 58 15 6 1 12 5 12 10 0 5 4 7 9 3 5 -3 12 -1 16 5
4 6 10 8 15 5 5 -3 11 -1 15 5 4 6 11 8 16 5 5 -4 9 -1 9 4 0 6 3 10 8 10 7
-1 11 0 30 6 4 2 17 6 30 10 12 4 22 11 22 16 0 5 7 9 15 9 8 0 15 5 15 10 0
6 6 10 13 10 6 0 32 18 57 40 24 22 48 40 52 40 4 0 7 3 6 8 -2 4 0 7 4 7 3 0
16 12 28 27 11 15 33 40 48 56 60 62 162 214 162 239 0 7 4 13 9 13 5 0 11 10
14 23 3 12 13 42 22 67 8 25 17 50 19 55 2 6 4 12 5 15 2 5 16 63 26 103 2 9
-2 17 -8 17 -8 0 -7 4 2 9 11 7 15 36 15 118 1 59 -2 114 -7 121 -5 7 -6 12
-1 12 5 0 7 32 4 70 -3 39 -3 70 1 70 10 0 5 44 -6 52 -6 5 -6 8 2 8 6 0 10 8
8 18 -1 9 2 23 8 30 6 8 6 12 -2 12 -7 0 -10 4 -7 8 3 5 8 24 11 43 9 45 13
63 15 67 2 1 3 5 4 10 1 4 6 21 10 37 5 17 8 38 7 49 -2 10 2 15 7 12 6 -3 9
2 7 11 -1 10 1 23 5 28 3 6 7 21 8 34 0 13 5 27 9 30 9 7 11 25 16 131 2 41 0
81 -6 88 -6 8 -5 12 3 12 10 0 10 3 1 14 -7 8 -14 24 -16 36 -2 11 -28 51 -57
88 -59 75 -263 282 -278 282 -6 0 -10 7 -10 15 0 8 -4 15 -9 15 -4 0 -24 14
-42 30 -19 17 -45 33 -59 37 -14 3 -28 10 -31 15 -8 13 -48 18 -54 7 -4 -5
-13 -5 -25 1 -23 12 -33 13 -26 2 3 -5 -1 -9 -9 -9 -8 0 -12 3 -10 7 2 4 -2 7
-10 7 -8 0 -11 -5 -8 -10z m158 -504 c-3 -16 -11 -29 -16 -31 -5 -2 -9 -9 -9
-16 0 -14 -61 -86 -74 -86 -4 0 -20 9 -35 19 -15 11 -39 23 -54 26 -15 4 -27
9 -27 12 0 8 33 38 39 36 11 -4 71 21 71 30 0 4 4 6 10 2 5 -3 19 0 32 6 13 7
30 16 38 20 27 14 32 10 25 -18z"/>
</g>
</svg>
