<?xml version="1.0" standalone="no"?>
<!DOCTYPE svg PUBLIC "-//W3C//DTD SVG 20010904//EN"
 "http://www.w3.org/TR/2001/REC-SVG-20010904/DTD/svg10.dtd">
<svg version="1.0" xmlns="http://www.w3.org/2000/svg"
 width="232.000000pt" height="232.000000pt" viewBox="0 0 232.000000 232.000000"
 preserveAspectRatio="xMidYMid meet">
<metadata>
Created by potrace 1.11, written by Peter Selinger 2001-2013
</metadata>
<g transform="translate(0.000000,232.000000) scale(0.100000,-0.100000)"
fill="#000000" stroke="none">
<path d="M382 1507 l-21 -22 114 -190 c84 -140 122 -194 144 -206 33 -18 206
-27 200 -11 -2 5 -62 109 -134 230 l-130 222 -76 0 c-66 0 -78 -3 -97 -23z"/>
<path d="M185 1242 c-43 -75 -103 -177 -132 -225 l-52 -89 37 -69 c31 -58 41
-69 63 -69 14 0 33 8 41 18 26 29 270 442 266 450 -2 4 -18 33 -36 65 -32 53
-36 57 -70 57 -37 0 -37 -1 -117 -138z"/>
<path d="M439 1043 c-1 -22 -5 -49 -24 -142 -18 -87 -19 -114 -4 -109 6 2 11
8 11 13 1 49 55 61 65 15 3 -17 12 -30 20 -30 9 0 12 7 9 18 -2 9 -8 37 -11
62 -8 49 -9 56 -19 115 -11 62 -16 75 -32 75 -8 0 -14 -8 -15 -17z m30 -116
c7 -40 6 -46 -11 -50 -20 -6 -20 -6 -8 102 1 15 11 -13 19 -52z"/>
<path d="M985 1019 c-8 -21 -43 -223 -40 -228 8 -8 25 12 25 30 0 30 44 22 48
-8 2 -13 10 -23 18 -23 14 0 13 28 -1 80 -2 8 -6 31 -9 50 -15 97 -29 130 -41
99z m20 -117 c5 -39 -5 -56 -20 -32 -6 10 4 84 11 77 2 -2 6 -22 9 -45z"/>
<path d="M1130 911 c0 -74 4 -121 10 -121 11 0 12 9 13 78 0 23 3 42 8 42 4 0
16 -26 26 -57 32 -96 44 -81 41 54 -2 72 -7 117 -13 115 -5 -1 -10 -29 -10
-62 0 -33 -2 -60 -5 -60 -4 0 -14 24 -23 54 -10 30 -24 59 -32 66 -13 11 -15
-3 -15 -109z"/>
<path d="M1331 1020 c-9 -5 -13 -66 -12 -172 l1 -58 44 0 c46 0 56 9 56 56 0
15 -6 24 -15 24 -10 0 -15 -10 -15 -31 0 -24 -3 -30 -16 -25 -9 3 -19 6 -23 6
-3 0 -6 40 -6 90 0 87 1 90 23 90 17 0 22 -6 22 -25 0 -15 6 -25 15 -25 10 0
14 10 13 35 -1 19 -4 35 -7 36 -24 4 -73 4 -80 -1z"/>
<path d="M1507 1016 c-2 -6 -3 -58 -3 -116 l1 -105 34 -3 c18 -2 38 1 44 7 11
11 8 12 -33 15 -10 1 -16 14 -18 44 -3 40 -1 43 17 37 10 -3 23 -1 26 6 9 14
-13 29 -32 22 -9 -4 -13 6 -13 35 0 37 3 41 28 44 15 2 25 7 22 13 -7 13 -68
14 -73 1z"/>
<path d="M1676 1022 c-3 -5 -5 -60 -5 -121 1 -79 5 -111 13 -108 6 2 11 24 10
50 -1 58 12 62 21 7 8 -45 20 -45 30 0 9 40 22 38 20 -2 -1 -39 4 -58 16 -58
12 0 11 227 -1 235 -10 6 -17 -13 -35 -99 -9 -45 -17 -36 -35 42 -12 52 -24
70 -34 54z"/>
<path d="M1885 1021 c-3 -2 -5 -55 -5 -118 l0 -113 40 0 c27 0 40 4 40 14 0 8
-9 12 -25 11 -14 -2 -26 2 -26 8 -5 45 -2 72 9 73 7 1 19 2 28 3 13 1 14 4 4
15 -6 8 -18 12 -26 9 -8 -3 -14 1 -15 8 0 8 -2 26 -3 42 -1 24 2 27 27 27 40
0 29 25 -12 26 -17 0 -34 -2 -36 -5z"/>
<path d="M2050 1000 c-4 -121 0 -205 9 -208 7 -2 11 17 11 52 0 31 4 56 9 56
5 0 17 -23 27 -52 11 -28 24 -53 29 -55 11 -3 18 198 9 227 -10 30 -21 -11
-19 -71 1 -32 -1 -59 -4 -59 -4 0 -15 24 -24 53 -9 29 -23 62 -32 72 -14 19
-14 18 -15 -15z"/>
<path d="M2223 1017 c-3 -4 4 -11 16 -14 20 -5 21 -12 21 -110 0 -79 3 -104
13 -101 8 3 12 34 13 104 0 86 2 99 18 102 9 2 15 9 13 15 -4 14 -86 17 -94 4z"/>
<path d="M616 1003 c-3 -3 -6 -53 -6 -110 l0 -103 34 0 c18 0 39 7 46 15 15
18 17 172 2 187 -12 12 -66 20 -76 11z m62 -105 c2 -65 0 -78 -13 -78 -8 0
-18 -1 -22 -2 -5 -2 -9 34 -9 80 -2 79 -1 83 20 80 19 -3 21 -10 24 -80z"/>
<path d="M783 973 c14 -113 37 -196 51 -182 5 4 36 188 36 209 0 5 -4 10 -9
10 -8 0 -19 -42 -26 -105 -5 -46 -12 -37 -20 21 -8 67 -14 84 -27 84 -6 0 -8
-16 -5 -37z"/>
</g>
</svg>
